<svg xmlns="http://www.w3.org/2000/svg" width="350" height="70" viewBox="0 0 190 80">
    <g fill="none" fill-rule="evenodd">
        <g transform="translate(55)">
            <ellipse cx="40.12" cy="40" fill="#5A9CF5" fill-rule="nonzero" rx="40.12" ry="40"/>
            <path fill="#FFF" d="M59.987 27.307c.128.257.193.45.193.58 0 .129-.065.322-.193.58L35.973 59.42c-.386.387-.675.58-.868.58-.322 0-.643-.161-.965-.484L20.542 46.362l-.29-.29c-.128-.259-.192-.452-.192-.58 0-.065.064-.227.193-.485l.193-.193c1.8-1.935 3.214-3.418 4.243-4.45.386-.386.643-.58.772-.58.257 0 .578.194.964.58l7.715 7.545L53.43 23.051c.128-.13.321-.194.578-.194.193 0 .418.065.675.194l5.305 4.256z"/>
        </g>
        <g fill="#5A9CF5" fill-rule="nonzero" transform="translate(0 26.4)">
            <rect width="47.341" height="4" rx="2"/>
            <rect width="11.234" height="4" x="36.108" y="24" rx="2"/>
            <rect width="23.269" height="4" x="20.862" y="12" rx="2"/>
        </g>
    </g>
</svg>
