<svg stroke="transparent" xmlns="http://www.w3.org/2000/svg" width="18" height="18" viewBox="0 0 18 18">
    <path stroke="transparent" fill-rule="evenodd" d="M17.394 11.119l-1.386-.806c.037-.213.068-.429.093-.647a5.862 5.862 0 0 0 0-1.332 10.742 10.742 0 0 0-.093-.646l1.386-.807a1.15 1.15 0 0 0 .562-.731 1.133 1.133 0 0 0-.13-.919L16.644 3.17a1.147 1.147 0 0 0-.722-.563 1.157 1.157 0 0 0-.908.113l-1.406.825a7.07 7.07 0 0 0-1.049-.769 6.815 6.815 0 0 0-1.18-.563V1.2a1.17 1.17 0 0 0-.347-.844A1.143 1.143 0 0 0 10.18 0H7.82c-.338 0-.622.119-.853.356a1.17 1.17 0 0 0-.347.844v1.012c-.412.15-.805.338-1.18.563a7.07 7.07 0 0 0-1.05.769l-1.405-.825c-.287-.163-.59-.2-.908-.113a1.147 1.147 0 0 0-.722.563L.175 5.23a1.133 1.133 0 0 0-.131.919c.087.325.275.569.562.731l1.386.806c-.037.213-.068.429-.093.647a5.862 5.862 0 0 0 0 1.332c.025.218.056.434.093.646l-1.386.807a1.15 1.15 0 0 0-.562.731c-.088.325-.044.631.13.919l1.181 2.062c.163.288.403.475.722.563.318.087.621.05.908-.113l1.406-.825a7.07 7.07 0 0 0 1.049.769c.375.225.768.412 1.18.563V16.8c0 .325.116.606.347.844.231.237.515.356.853.356h2.36c.338 0 .622-.119.853-.356a1.17 1.17 0 0 0 .347-.844v-1.012c.412-.15.805-.338 1.18-.563a7.07 7.07 0 0 0 1.05-.769l1.405.825c.287.163.59.2.908.113.319-.088.56-.275.722-.563l1.18-2.062c.175-.288.219-.594.131-.919a1.15 1.15 0 0 0-.562-.731zm-.88 1.556l-.6 1.05a.617.617 0 0 1-.365.272.523.523 0 0 1-.44-.066l-1.668-.956a5.92 5.92 0 0 1-1.452 1.21 5.888 5.888 0 0 1-1.809.702V16.2a.593.593 0 0 1-.168.422.546.546 0 0 1-.412.178H8.4c-.162 0-.3-.06-.412-.178a.593.593 0 0 1-.168-.422v-1.313a5.888 5.888 0 0 1-1.809-.703 5.92 5.92 0 0 1-1.452-1.209l-1.667.956a.523.523 0 0 1-.44.066.617.617 0 0 1-.366-.272l-.6-1.05a.588.588 0 0 1-.046-.45.548.548 0 0 1 .271-.356l1.668-.975c-.1-.3-.178-.606-.234-.919A5.5 5.5 0 0 1 3.06 9a5.5 5.5 0 0 1 .085-.975c.056-.313.134-.619.234-.919L1.71 6.131a.548.548 0 0 1-.271-.356.588.588 0 0 1 .046-.45l.6-1.05a.617.617 0 0 1 .365-.272.523.523 0 0 1 .44.066l1.668.956a5.92 5.92 0 0 1 1.452-1.21 5.888 5.888 0 0 1 1.809-.702V1.8c0-.163.056-.303.168-.422A.546.546 0 0 1 8.4 1.2h1.2c.162 0 .3.06.412.178.112.119.168.26.168.422v1.313a5.92 5.92 0 0 1 3.26 1.912l1.668-.956a.523.523 0 0 1 .44-.066.617.617 0 0 1 .366.272l.6 1.05c.074.138.09.287.046.45a.548.548 0 0 1-.271.356l-1.65.975c.088.3.16.606.216.919A5.5 5.5 0 0 1 14.94 9a5.5 5.5 0 0 1-.085.975 8.932 8.932 0 0 1-.215.919l1.649.975a.548.548 0 0 1 .271.356.588.588 0 0 1-.046.45zM9 6c-.824 0-1.527.294-2.108.881A2.905 2.905 0 0 0 6.021 9c0 .825.29 1.531.871 2.119.58.587 1.284.881 2.108.881.824 0 1.527-.294 2.108-.881.58-.588.871-1.294.871-2.119 0-.825-.29-1.531-.871-2.119A2.855 2.855 0 0 0 9 6zm0 4.8c-.487 0-.906-.175-1.255-.525A1.736 1.736 0 0 1 7.22 9c0-.5.175-.925.525-1.275.35-.35.768-.525 1.255-.525.487 0 .906.175 1.255.525.35.35.525.775.525 1.275 0 .5-.175.925-.525 1.275-.35.35-.768.525-1.255.525z"/>
</svg>
