<svg stroke="transparent" xmlns="http://www.w3.org/2000/svg" width="19" height="18" viewBox="0 0 19 18">
    <path stroke="transparent" fill-rule="evenodd" d="M16.001 0c.832 0 1.54.292 2.123.876C18.708 1.46 19 2.168 19 3v12c0 .832-.292 1.54-.876 2.124a2.89 2.89 0 0 1-2.123.876H4.99a2.89 2.89 0 0 1-2.123-.876A2.893 2.893 0 0 1 1.99 15v-1.008h-.983a.988.988 0 0 1-.708-.288.93.93 0 0 1-.3-.696c0-.272.1-.508.3-.708.2-.2.436-.3.708-.3h.983v-1.992h-.983a.968.968 0 0 1-.708-.3C.1 9.508 0 9.272 0 9c0-.272.1-.508.3-.708.2-.2.436-.3.708-.3h.983V6h-.983A.968.968 0 0 1 .3 5.7c-.2-.2-.3-.436-.3-.708 0-.272.1-.504.3-.696a.988.988 0 0 1 .708-.288h.983V3c0-.832.292-1.54.876-2.124A2.89 2.89 0 0 1 4.99 0H16zM4 3.008v1.008h.984V2c-.272 0-.504.1-.696.3A.989.989 0 0 0 4 3.008zM4 6v1.992h.984V6H4zm0 4v1.992h.984V10H4zm0 5.008c0 .272.096.508.288.708.192.2.424.3.696.3V14H4v1.008zm12.987 0v-12A.989.989 0 0 0 16.7 2.3a.929.929 0 0 0-.695-.3H6v14.016h10.004c.272 0 .504-.1.695-.3a.989.989 0 0 0 .288-.708zM9 8.016C9 6.672 9.664 6 10.991 6c1.344 0 2.015.672 2.015 2.016 0 1.328-.671 1.992-2.015 1.992C9.664 10.008 9 9.344 9 8.016zM10.495 10c.72 0 1.315.144 1.787.432.472.288.708.624.708 1.008 0 .192-.24.36-.72.504-.48.144-1.071.216-1.775.216-.752 0-1.355-.072-1.811-.216C8.228 11.8 8 11.632 8 11.44c0-.384.228-.72.684-1.008.456-.288 1.06-.432 1.81-.432z"/>
</svg>
