<svg xmlns="http://www.w3.org/2000/svg" width="20" height="19" viewBox="0 0 20 19">
    <path stroke="transparent" fill-rule="evenodd" d="M10.294 6.217c.512 0 .926.42.926.937a.932.932 0 0 1-.926.938.932.932 0 0 1-.925-.938c0-.517.414-.937.925-.937zm-4.233 0c.51 0 .925.42.925.937a.932.932 0 0 1-.925.938.932.932 0 0 1-.926-.938c0-.517.414-.937.926-.937zm8.467 0c.511 0 .926.42.926.937a.932.932 0 0 1-.926.938.932.932 0 0 1-.925-.938c0-.517.414-.937.925-.937zm3.953 6.427c0 .052-.098.144-.253.144H9.24c-.013 0-.024.005-.036.005a.417.417 0 0 0-.08.01c-.023 0-.047.005-.07.01-.024.01-.047.016-.07.026a.363.363 0 0 0-.071.026c-.02.01-.041.025-.061.036l-.069.046c-.009.005-.02.01-.028.02L4.43 16.593v-3.037a.763.763 0 0 0-.76-.768H1.773c-.154 0-.253-.092-.253-.144V1.684c0-.05.099-.148.253-.148h16.456c.155 0 .253.098.253.149v10.96zM18.228 0H1.772C.795 0 0 .758 0 1.685v10.96c0 .926.795 1.68 1.772 1.68h1.14v3.907c0 .297.17.568.436.696a.749.749 0 0 0 .808-.108l5.358-4.496h8.714c.977 0 1.772-.753 1.772-1.68V1.684C20 .759 19.205 0 18.228 0z"/>
</svg>
