<svg xmlns="http://www.w3.org/2000/svg" width="15" height="18" viewBox="0 0 15 18">
    <path stroke="transparent" fill-rule="evenodd" d="M8.18 5.442H3.966a.694.694 0 0 1-.706-.683c0-.377.316-.682.706-.682h4.212c.39 0 .706.305.706.682a.694.694 0 0 1-.706.683zm2.785 2.862H3.967a.697.697 0 0 1-.706-.683c0-.377.316-.682.706-.682h6.998c.39 0 .706.305.706.682a.697.697 0 0 1-.706.683zM11 11.16H4.001a.694.694 0 0 1-.706-.682c0-.378.316-.683.706-.683h6.998c.39 0 .705.305.705.683a.694.694 0 0 1-.705.682zm-.034 2.862H3.967a.697.697 0 0 1-.706-.682c0-.378.316-.683.706-.683h6.998c.39 0 .706.305.706.683a.697.697 0 0 1-.706.682zM1.645 1.365a.235.235 0 0 0-.234.228v14.814c0 .123.107.228.235.228h11.708a.235.235 0 0 0 .235-.228V1.593a.235.235 0 0 0-.235-.228H1.646zM13.356 18H1.644C.739 18 0 17.286 0 16.407V1.593C0 .714.738 0 1.646 0h11.708C14.262 0 15 .714 15 1.593v14.814c0 .879-.738 1.593-1.646 1.593z"/>
</svg>
