<svg stroke="transparent" xmlns="http://www.w3.org/2000/svg" width="32" height="32" viewBox="0 0 32 32">
    <g fill="none" fill-rule="evenodd">
        <path stroke="transparent" fill="#F05454" d="M4.643 4.714C7.786 1.571 11.57 0 16 0c4.429 0 8.202 1.56 11.321 4.679C30.441 7.798 32 11.57 32 16c0 4.429-1.56 8.202-4.679 11.321C24.202 30.441 20.43 32 16 32c-4.429 0-8.202-1.56-11.321-4.679C1.559 24.202 0 20.43 0 16c0-4.429 1.548-8.19 4.643-11.286z"/>
        <path stroke="transparent" fill="#FFF" d="M13.392 16.497l-4.77-4.753a.64.64 0 0 1-.115-.24.64.64 0 0 1 .053-.26l2.085-2.116c.105-.07.2-.11.284-.12.112-.013.2.004.262.053l1.762 1.755c.018.035.042.074.07.117L16 13.898l2.977-2.965c.028-.043.052-.082.07-.117l1.762-1.755c.063-.049.15-.066.262-.053.084.01.179.05.284.12l2.085 2.116a.64.64 0 0 1 .053.26.64.64 0 0 1-.115.24l-4.77 4.753 4.52 4.502a.537.537 0 0 1 .037.721l-1.647 2.015c-.123.156-.255.243-.395.26-.084.01-.22-.058-.408-.204L16 19.095l-4.715 4.696c-.188.146-.324.214-.408.204-.14-.017-.272-.104-.395-.26L8.835 21.72a.537.537 0 0 1 .037-.72l4.52-4.503z"/>
    </g>
</svg>
