<svg xmlns="http://www.w3.org/2000/svg" width="48" height="65" viewBox="0 0 48 65">
    <path fill="#F2F2F2" fill-rule="evenodd" d="M9.785 5.6C13.648 1.867 18.303 0 23.75 0c5.447 0 10.102 1.867 13.965 5.6 3.863 3.734 5.795 8.232 5.795 13.496 0 5.264-1.932 9.762-5.795 13.496-3.863 3.733-8.518 5.6-13.965 5.6-5.447 0-10.102-1.867-13.965-5.6C5.922 28.858 3.99 24.36 3.99 19.096c0-5.264 1.932-9.762 5.795-13.496zM0 57.38c0-4.04 2.185-7.605 6.555-10.696 4.37-3.09 10.102-4.636 17.195-4.636 6.903 0 12.587 1.545 17.053 4.636C45.268 49.775 47.5 53.34 47.5 57.38c0 2.02-2.264 3.795-6.793 5.325C36.18 64.235 30.527 65 23.75 65c-7.093 0-12.825-.765-17.195-2.295C2.185 61.175 0 59.4 0 57.38z"/>
</svg>
