<svg xmlns="http://www.w3.org/2000/svg" width="17" height="23" viewBox="0 0 17 23">
    <path stroke="transparent" fill-rule="evenodd" d="M7.756 16.354v.891a.751.751 0 1 0 1.504 0v-.896c.46-.265.775-.755.775-1.32a1.53 1.53 0 0 0-1.527-1.527 1.524 1.524 0 1 0-.752 2.852m7.74 3.258c0 .18-.042 1.787-1.503 1.847-2.18.085-10.849.01-10.957.005-.134 0-1.308-.065-1.532-2.162v-8.698h13.992v9.008zM8.478 1.502c4.224 0 4.466 3.497 4.48 3.873v3.728h-8.96V5.58c.004-.17.15-4.079 4.48-4.079zm7.77 7.6h-1.786V5.356C14.413 3.503 13.101 0 8.477 0 3.853 0 2.54 3.623 2.494 5.56v3.543H.752a.751.751 0 0 0-.752.75v9.489c0 .025.002.05.004.075.29 2.887 2.143 3.603 3.038 3.548.228.005 3.725.035 6.81.035 1.765 0 3.395-.01 4.202-.04 2.33-.095 2.946-2.232 2.946-3.348V9.854a.751.751 0 0 0-.752-.751z"/>
</svg>
