<svg xmlns="http://www.w3.org/2000/svg" width="119" height="30" viewBox="0 0 119 30">
    <path fill="#141A22" fill-rule="evenodd" d="M21.31 0h6.216l-.202 30H21.31V11.199l-7.405 9.407v.363l-.142-.181-.143.18v-.362L6.215 11.2V30H.202L0 0h6.215l7.548 10.371L21.31 0zm25.93 29.824c-8.15 0-14.756-6.676-14.756-14.912S39.09 0 47.24 0c8.149 0 14.755 6.676 14.755 14.912S55.39 29.824 47.24 29.824zm.126-6.882c4.318 0 7.819-3.538 7.819-7.902 0-4.365-3.5-7.903-7.82-7.903-4.318 0-7.819 3.538-7.819 7.903 0 4.364 3.501 7.902 7.82 7.902zm56.878 6.882c-8.149 0-14.755-6.676-14.755-14.912S96.095 0 104.244 0C112.394 0 119 6.676 119 14.912s-6.606 14.912-14.756 14.912zm.126-6.882c4.319 0 7.82-3.538 7.82-7.902 0-4.365-3.501-7.903-7.82-7.903-4.318 0-7.819 3.538-7.819 7.903 0 4.364 3.501 7.902 7.82 7.902zM65.582 1.204H87.76L76.292 22.583h10.982v6.505H64.786L76.545 7.851H65.643l-.061-6.647z"/>
</svg>
