<svg xmlns="http://www.w3.org/2000/svg" width="18" height="18" viewBox="0 0 18 18">
    <path stroke="transparent" fill-rule="evenodd" d="M9 5.433c.388 0 .701.31.701.698v.006a.701.701 0 1 1-1.402 0c0-.387.313-.704.701-.704zm0 2.501c.388 0 .701.315.701.702v3.701a.7.7 0 1 1-1.402 0V8.636c0-.387.313-.702.701-.702zm0 8.663c-4.19 0-7.597-3.407-7.597-7.597S4.81 1.403 9 1.403c4.19 0 7.597 3.408 7.597 7.597 0 4.19-3.408 7.597-7.597 7.597zM9 0C4.035 0 0 4.038 0 9s4.035 9 9 9c4.96 0 9-4.038 9-9s-4.04-9-9-9z"/>
</svg>
