<svg stroke="transparent" xmlns="http://www.w3.org/2000/svg" width="16" height="20" viewBox="0 0 16 20">
    <path stroke="transparent" fill-rule="evenodd" d="M11.692 13.75H4.308a.587.587 0 0 0-.433.186.605.605 0 0 0-.183.439c0 .17.061.316.183.44a.587.587 0 0 0 .433.185h7.384c.167 0 .311-.062.433-.186a.605.605 0 0 0 .183-.439c0-.17-.061-.316-.183-.44a.587.587 0 0 0-.433-.185zm0-3.75H4.308a.587.587 0 0 0-.433.186.605.605 0 0 0-.183.439c0 .17.061.316.183.44a.587.587 0 0 0 .433.185h7.384c.167 0 .311-.062.433-.186a.605.605 0 0 0 .183-.439c0-.17-.061-.316-.183-.44a.587.587 0 0 0-.433-.185zm-.615-10v.02c-.039 0-.15-.004-.337-.01-.186-.007-.484-.01-.894-.01H2.462c-.68 0-1.26.244-1.74.732A2.428 2.428 0 0 0 0 2.5v15c0 .69.24 1.28.721 1.768.48.488 1.061.732 1.74.732h11.077c.68 0 1.26-.244 1.74-.732.482-.489.722-1.078.722-1.768V5l-4.923-5zm3.692 17.5c0 .352-.122.648-.365.889a1.19 1.19 0 0 1-.866.361H2.462a1.19 1.19 0 0 1-.866-.361 1.201 1.201 0 0 1-.365-.889v-15c0-.339.122-.632.365-.879.244-.247.532-.371.866-.371h7.365c0 .755.003 1.36.01 1.816l.01.684c0 .69.24 1.28.72 1.768.481.488 1.061.732 1.74.732h2.463V17.5zM12.308 5a1.19 1.19 0 0 1-.866-.361 1.201 1.201 0 0 1-.365-.889v-.693V1.25L14.769 5h-2.461z"/>
</svg>
