<svg xmlns="http://www.w3.org/2000/svg" width="181" height="150" viewBox="0 0 181 185">
    <g fill="none" fill-rule="nonzero">
        <ellipse cx="90.5" cy="92.5" fill="#D1D7DD" rx="90.421" ry="92.5"/>
        <path fill="#ECF0F0" d="M135.88 111.982c19.24-19.68 19.248-51.58.009-71.261-19.239-19.681-50.442-19.693-69.68-.013-17.457 17.857-18.994 45.862-4.865 65.49l-15.225 15.574c-1.092 1.119-1.114 3.02-.02 4.138l6.43 6.58c1.094 1.119 2.887 1.03 3.981-.089l15.21-15.559c19.31 14.665 46.671 13.033 64.16-4.86z"/>
        <path fill="#5D5D5D" d="M46.352 121.772c-1.093 1.119-1.23 3.02-.138 4.138l6.374 6.58c1.093 1.119 3.09 1.03 4.184-.089l2.951-2.811V108.33l-13.371 13.441z" opacity=".3"/>
        <path fill="#76BED6" d="M127.29 103.194c-14.485 14.818-37.97 14.818-52.454 0-14.484-14.818-14.484-38.842 0-53.659 14.485-14.818 37.97-14.818 52.454 0 14.484 14.817 14.484 38.841 0 53.659z"/>
        <path fill="#83D2ED" d="M76.485 101.507c-13.551-13.864-13.551-36.421 0-50.284a34.246 34.246 0 0 1 49.155-.001c13.552 13.864 13.552 36.421 0 50.285a34.246 34.246 0 0 1-49.155 0z"/>
        <path fill="#FBFFFF" d="M132.466 42.281c-7.822-6.878-17.559-10.907-27.854-11.545-10.173-.631-20.502 2.376-28.879 8.291-1.844 1.303-.127 4.423 1.728 3.113 7.796-5.504 17.06-8.24 26.522-7.858 9.517.385 18.797 4.187 26.01 10.53 1.7 1.495 4.185-1.025 2.473-2.53z"/>
        <path fill="#B0EBFF" d="M125.883 95.436a14.23 14.23 0 0 1-20.449 0c-5.646-5.777-5.646-15.14 0-20.918a14.23 14.23 0 0 1 20.449 0c5.646 5.777 5.646 15.141 0 20.918zM125.227 63.728a3.905 3.905 0 0 1-5.612-.001 4.125 4.125 0 0 1 0-5.74 3.904 3.904 0 0 1 5.611 0c1.55 1.586 1.55 4.155 0 5.74z"/>
        <path fill="#334D5C" d="M48.704 117.103L18.308 148.2a92.273 92.273 0 0 0 12.724 13.978l30.866-31.575c3.63-3.712-9.565-17.21-13.194-13.499z"/>
        <path fill="#5D5D5D" d="M61.743 130.602c3.629-3.712-9.467-17.21-13.095-13.498l-9.963 10.293v26.995l23.058-23.79z" opacity=".3"/>
        <path fill="#FFC444" d="M63.877 133.638a2.295 2.295 0 0 1-3.298 0l-15.008-15.353a2.425 2.425 0 0 1 0-3.375l3.793-3.88a2.296 2.296 0 0 1 3.298 0l15.009 15.354a2.424 2.424 0 0 1 0 3.374l-3.794 3.88z"/>
    </g>
</svg>
