<svg stroke="transparent" xmlns="http://www.w3.org/2000/svg" width="32" height="32" viewBox="0 0 32 32">
    <path stroke="transparent" fill="#17B978" fill-rule="evenodd" d="M4.643 4.714C7.786 1.571 11.57 0 16 0c4.429 0 8.202 1.56 11.321 4.679C30.441 7.798 32 11.57 32 16c0 4.429-1.56 8.202-4.679 11.321C24.202 30.441 20.43 32 16 32c-4.429 0-8.202-1.56-11.321-4.679C1.559 24.202 0 20.43 0 16c0-4.429 1.548-8.19 4.643-11.286zm19.571 5.929c.048-.048.072-.12.072-.214 0-.143-.024-.239-.072-.286L22 8.429c-.048-.048-.143-.072-.286-.072-.095 0-.166.024-.214.072l-7.929 10.214c-2.095-2-3.166-3.024-3.214-3.072-.143-.142-.286-.214-.428-.214-.048 0-.143.072-.286.214l-1.786 1.786-.071.072c-.048.047-.072.142-.072.285 0 .096.024.167.072.215l.143.071c3.714 3.571 5.595 5.381 5.642 5.429.143.142.262.214.358.214.095 0 .214-.072.357-.214l9.928-12.786z"/>
</svg>
