<svg xmlns="http://www.w3.org/2000/svg" width="16" height="16" viewBox="0 -2 16 20">
    <path stroke="transparent" d="M13.99 3.793H1.502v-.496l10.986-.893v.893h1.502V1.77c0-.556-.192-1.006-.575-1.35-.384-.344-.85-.476-1.395-.397L1.99 1.492c-.546.078-1.014.343-1.405.793-.39.45-.585.953-.585 1.508v10.163c0 .569.195 1.052.585 1.449.39.397.865.595 1.425.595h11.98c.56 0 1.034-.198 1.425-.595.39-.397.585-.88.585-1.45V5.839a1.99 1.99 0 0 0-.585-1.45 1.922 1.922 0 0 0-1.425-.595zm-1.502 7.126c-.403 0-.751-.149-1.044-.447a1.486 1.486 0 0 1-.44-1.081c0-.41.147-.765.44-1.062.293-.298.64-.447 1.044-.447.416 0 .77.149 1.063.447.293.297.44.651.44 1.062 0 .423-.147.784-.44 1.081a1.436 1.436 0 0 1-1.063.447z"/>
</svg>
