<svg fill="#ffffff" xmlns="http://www.w3.org/2000/svg" xmlns:xlink="http://www.w3.org/1999/xlink" width="480" height="800" viewBox="-117 -300 480 800">
    <defs>
        <linearGradient id="b" x1="0%" y1="50%" y2="50%">
            <stop offset="0%" stop-color="#071553"/>
            <stop offset="100%" stop-color="#2E43B4"/>
        </linearGradient>
        <path id="a" d="M93.07 48.187L73.515 32.463 113.774 0l18.445 16.75-39.15 31.437zM58.82 75.688l-40.855 32.806L0 91.744l39.298-31.689L58.82 75.688z"/>
        <linearGradient id="d" x1="2.4%" y1="4.366%" y2="100%">
            <stop offset="0%" stop-color="#276BC2"/>
            <stop offset="100%" stop-color="#1238D4"/>
        </linearGradient>
        <linearGradient id="e" x1="50%" x2="50%" y1="100%" y2="0%">
            <stop offset="0%" stop-color="#475BCA"/>
            <stop offset="100%" stop-color="#6090E5"/>
        </linearGradient>
    </defs>
    <g fill="none" fill-rule="evenodd">
        <g transform="translate(56.088)">
            <mask id="c" fill="#fff">
                <use xlink:href="#a"/>
            </mask>
            <use fill="url(#b)" fill-rule="nonzero" xlink:href="#a"/>
            <path fill="#000" fill-opacity=".313" fill-rule="nonzero" d="M18.445 11.05l113.774 91.745-17.965 16.75L0 27.8z" mask="url(#c)"/>
        </g>
        <path fill="url(#d)" fill-rule="nonzero" d="M24.546 0l113.856 91.744-17.977 16.75L6.088 16.75z" transform="translate(50)"/>
        <path fill="url(#d)" fill-rule="nonzero" d="M24.546 0l113.856 91.744-17.977 16.75L6.088 16.75z" transform="translate(50)"/>
        <path fill="url(#d)" fill-rule="nonzero" d="M24.546 0l113.856 91.744-17.977 16.75L6.088 16.75z" transform="translate(50)"/>
        <path fill="url(#e)" fill-rule="nonzero" d="M120.215 0h24.352v108.494h-24.352zM0 0h24.352v108.494H0z" transform="translate(50)"/>
        <g fill="#141A22">
            <path d="M34.874 149h10.171l-.33 50.27h-9.84v-31.505l-12.12 15.764v.608l-.232-.304-.234.304v-.608l-12.118-15.764v31.505H.331L0 149h10.171l12.352 17.379L34.874 149zm42.433 49.976c-13.336 0-24.148-11.188-24.148-24.988 0-13.8 10.812-24.988 24.148-24.988s24.147 11.187 24.147 24.988c0 13.8-10.81 24.988-24.147 24.988zm.206-11.533c7.067 0 12.796-5.929 12.796-13.242 0-7.313-5.729-13.241-12.796-13.241-7.067 0-12.796 5.928-12.796 13.241s5.73 13.242 12.796 13.242zm93.081 11.533c-13.336 0-24.147-11.188-24.147-24.988 0-13.8 10.811-24.988 24.147-24.988 13.336 0 24.148 11.187 24.148 24.988 0 13.8-10.812 24.988-24.148 24.988zm.207-11.533c7.067 0 12.796-5.929 12.796-13.242 0-7.313-5.73-13.241-12.796-13.241-7.067 0-12.796 5.928-12.796 13.241s5.729 13.242 12.796 13.242zm-63.478-36.425h36.294l-18.766 35.824h17.972v10.9h-36.801l19.242-35.587h-17.84l-.1-11.137z"/>
            <path fill-rule="nonzero" d="M244.408 197.004h-12.28l-11.702-15.467-11.702 15.467h-12.28l17.842-23.582-18.091-23.911h12.28l11.951 15.796 11.952-15.796h12.28l-18.092 23.91z"/>
        </g>
    </g>
</svg>